<?xml version="1.0" encoding="UTF-8"?>
<svg id="Layer_1" data-name="Layer 1" xmlns="http://www.w3.org/2000/svg" viewBox="0 0 78.22 109.26">
  <g style="opacity: .46;">
    <path d="m11.95,69.09h4.09v1.45h-2.3v1.16h2.16v1.42h-2.16v1.13h2.3v1.5h-4.09v-6.66Z" style="fill: #999; stroke-width: 0px;"/>
    <path d="m20.26,70.9c.03.09.06.18.08.27,0-.02.01-.04.02-.06,0-.02.01-.03.02-.05.03-.07.06-.14.09-.21s.07-.14.11-.21l.79-1.55h2.15l-2.22,3.2,2.46,3.46h-2.05l-1.14-1.99c-.04-.06-.07-.11-.09-.17-.03-.06-.05-.12-.07-.18,0-.01-.01-.03-.02-.04s0-.02-.02-.04c0-.01-.01-.03-.02-.05,0-.02-.01-.04-.02-.06,0,.03-.01.06-.02.09s-.02.06-.03.09c-.02.06-.05.12-.07.18-.03.06-.06.12-.09.17l-1.13,1.99h-2.05l2.46-3.49-2.23-3.17h2.15l.79,1.55c.06.09.1.18.14.27Z" style="fill: #999; stroke-width: 0px;"/>
    <path d="m28.89,73.31c-.46.16-.96.25-1.48.26h-.2s-.1,0-.14,0c-.05,0-.09,0-.13,0-.05,0-.1,0-.14,0-.04,0-.09,0-.14,0v2.21h-1.71v-6.66h2.37c.09,0,.18,0,.27.01.36.01.71.07,1.04.18.33.1.62.31.85.63.12.15.21.33.28.52.07.19.12.39.15.58,0,.06.01.12.02.18,0,.06,0,.12,0,.18,0,.13,0,.27-.03.4-.02.14-.04.26-.08.38-.16.61-.47,1-.94,1.17Zm-2.14-1.21s.06,0,.1,0c.03,0,.06,0,.09,0,.03,0,.06,0,.09,0h.08c.26,0,.5-.06.72-.15.22-.09.33-.31.34-.63v-.06c0-.29-.1-.49-.3-.58-.2-.09-.42-.15-.65-.16-.04,0-.08-.01-.12-.01h-.43v1.58s.06,0,.09,0Z" style="fill: #999; stroke-width: 0px;"/>
    <path d="m32.04,75.75h-1.71v-6.66h2.39c.08,0,.17,0,.25,0,.08,0,.17,0,.25.02.24.01.47.05.7.11s.44.16.63.31c.24.19.42.42.54.69s.19.56.2.86v.06c0,.53-.12.95-.37,1.27-.25.31-.62.53-1.12.65l1.82,2.7h-2.05l-1.53-2.61v2.61Zm.05-3.52s.04,0,.06,0c.01,0,.03,0,.05,0s.03,0,.05,0h.03c.3,0,.58-.05.83-.14.25-.09.39-.34.39-.73v-.05c0-.36-.12-.59-.37-.69s-.51-.15-.8-.16h-.28v1.75s.03,0,.05,0Z" style="fill: #999; stroke-width: 0px;"/>
    <path d="m36.73,69.09h4.09v1.45h-2.3v1.16h2.16v1.42h-2.16v1.13h2.3v1.5h-4.09v-6.66Z" style="fill: #999; stroke-width: 0px;"/>
    <path d="m42.77,73.61s0,0,.02.02c.19.21.4.4.64.58.24.18.51.27.82.29,0,0,.02,0,.03,0,0,0,.02,0,.03,0s.02,0,.03,0c.01,0,.02,0,.03,0,.03,0,.06,0,.09,0,.03,0,.06,0,.09-.02.11-.02.22-.06.32-.13.1-.06.18-.14.23-.23,0-.01.01-.03.02-.04,0-.01.01-.03.02-.04.01-.05.02-.09.03-.14,0-.04.01-.08.01-.11,0-.19-.08-.35-.25-.48-.16-.13-.34-.23-.53-.3-.08-.03-.15-.05-.22-.07-.07-.02-.14-.03-.2-.05,0,0-.01,0-.02,0s-.01,0-.02,0c-.34-.08-.66-.22-.96-.4-.3-.18-.5-.45-.62-.8-.02-.07-.04-.14-.06-.22-.02-.08-.03-.16-.04-.24,0-.03,0-.05,0-.08v-.08c0-.06,0-.11,0-.17,0-.06.01-.11.03-.17.02-.14.06-.28.1-.42.05-.14.11-.27.19-.38.22-.37.51-.63.86-.79.35-.16.72-.24,1.1-.24.09,0,.18,0,.28.02.09.01.19.02.29.04.25.04.5.11.75.21.25.1.48.21.69.35l-.58,1.29c-.19-.14-.39-.26-.6-.37-.21-.1-.44-.16-.68-.16h-.08c-.16.02-.31.09-.45.21-.14.12-.21.25-.21.39,0,.02,0,.04,0,.06,0,.02.01.04.03.06.01.05.04.09.07.14.04.04.07.08.12.11.08.06.19.12.33.17.15.05.3.1.46.15.13.04.26.07.39.1.13.03.23.06.31.09.39.14.68.37.88.7.2.32.3.67.3,1.03v.05s0,.08,0,.13,0,.08,0,.12c-.04.36-.16.71-.35,1.04s-.45.58-.77.75c-.12.06-.24.1-.37.14-.12.04-.25.07-.38.1-.1.02-.21.04-.31.05-.1.01-.21.02-.3.02h-.12c-.42-.01-.83-.11-1.23-.28-.41-.17-.76-.4-1.08-.68l.84-1.34s.01.01.02.02Z" style="fill: #999; stroke-width: 0px;"/>
    <path d="m48.74,73.61s0,0,.02.02c.19.21.4.4.64.58.24.18.51.27.82.29,0,0,.02,0,.03,0,0,0,.02,0,.03,0s.02,0,.03,0c.01,0,.02,0,.03,0,.03,0,.06,0,.09,0,.03,0,.06,0,.09-.02.11-.02.22-.06.32-.13.1-.06.18-.14.23-.23,0-.01.01-.03.02-.04,0-.01.01-.03.02-.04.01-.05.02-.09.03-.14,0-.04.01-.08.01-.11,0-.19-.08-.35-.25-.48-.16-.13-.34-.23-.53-.3-.08-.03-.15-.05-.22-.07-.07-.02-.14-.03-.2-.05,0,0-.01,0-.02,0s-.01,0-.02,0c-.34-.08-.66-.22-.96-.4-.3-.18-.5-.45-.62-.8-.02-.07-.04-.14-.06-.22-.02-.08-.03-.16-.04-.24,0-.03,0-.05,0-.08v-.08c0-.06,0-.11,0-.17,0-.06.01-.11.03-.17.02-.14.06-.28.1-.42.05-.14.11-.27.19-.38.22-.37.51-.63.86-.79.35-.16.72-.24,1.1-.24.09,0,.18,0,.28.02.09.01.19.02.29.04.25.04.5.11.75.21.25.1.48.21.69.35l-.58,1.29c-.19-.14-.39-.26-.6-.37-.21-.1-.44-.16-.68-.16h-.08c-.16.02-.31.09-.45.21-.14.12-.21.25-.21.39,0,.02,0,.04,0,.06,0,.02.01.04.03.06.01.05.04.09.07.14.04.04.07.08.12.11.08.06.19.12.33.17.15.05.3.1.46.15.13.04.26.07.39.1.13.03.23.06.31.09.39.14.68.37.88.7.2.32.3.67.3,1.03v.05s0,.08,0,.13,0,.08,0,.12c-.04.36-.16.71-.35,1.04s-.45.58-.77.75c-.12.06-.24.1-.37.14-.12.04-.25.07-.38.1-.1.02-.21.04-.31.05-.1.01-.21.02-.3.02h-.12c-.42-.01-.83-.11-1.23-.28-.41-.17-.76-.4-1.08-.68l.84-1.34s.01.01.02.02Z" style="fill: #999; stroke-width: 0px;"/>
    <path d="m54.81,76s-.01-.01-.02-.01h-.02c-.24,0-.45-.1-.65-.28-.2-.18-.29-.39-.29-.64s.1-.47.29-.67c.19-.2.41-.31.65-.31h.06c.23.01.44.12.63.32.19.2.29.42.29.66s-.1.45-.29.63c-.19.18-.4.28-.63.29h-.03Z" style="fill: #999; stroke-width: 0px;"/>
    <path d="m60.58,69.09v4.63c0,.26-.04.51-.09.76s-.15.47-.3.67c-.18.24-.4.43-.66.54s-.52.18-.79.2h-.18s-.06,0-.09-.01c-.36-.03-.7-.13-1.02-.31s-.59-.42-.8-.72l1.11-1s.01.06.02.09c0,.03.02.06.03.1.04.11.1.21.17.3s.17.14.28.14c.01,0,.03,0,.05,0s.04,0,.06-.02h.02s.03-.01.05-.02c.02,0,.03,0,.04,0,.11-.05.19-.16.24-.33.04-.17.07-.36.08-.55,0-.04.01-.08.01-.13v-4.33h1.79Z" style="fill: #999; stroke-width: 0px;"/>
    <path d="m62.55,73.61s0,0,.02.02c.19.21.4.4.64.58s.51.27.82.29c0,0,.02,0,.03,0s.02,0,.03,0,.02,0,.03,0c0,0,.02,0,.03,0,.03,0,.06,0,.09,0,.03,0,.06,0,.09-.02.11-.02.22-.06.32-.13.1-.06.18-.14.24-.23,0-.01.01-.03.02-.04,0-.01.01-.03.02-.04.01-.05.02-.09.03-.14,0-.04.01-.08.01-.11,0-.19-.08-.35-.25-.48-.16-.13-.34-.23-.53-.3-.08-.03-.15-.05-.22-.07-.07-.02-.14-.03-.2-.05,0,0-.01,0-.02,0,0,0-.01,0-.02,0-.34-.08-.66-.22-.96-.4-.3-.18-.51-.45-.62-.8-.02-.07-.04-.14-.06-.22-.02-.08-.03-.16-.04-.24,0-.03-.01-.05-.01-.08v-.08c0-.06,0-.11,0-.17,0-.06.01-.11.03-.17.02-.14.06-.28.1-.42.05-.14.11-.27.19-.38.22-.37.51-.63.86-.79.35-.16.72-.24,1.1-.24.09,0,.18,0,.28.02.09.01.19.02.29.04.25.04.5.11.75.21s.48.21.68.35l-.58,1.29c-.19-.14-.39-.26-.6-.37s-.44-.16-.68-.16h-.08c-.16.02-.31.09-.45.21s-.21.25-.21.39c0,.02,0,.04,0,.06,0,.02.01.04.03.06.01.05.04.09.07.14.04.04.07.08.12.11.08.06.19.12.33.17.15.05.3.1.46.15.13.04.26.07.39.1.12.03.23.06.31.09.39.14.68.37.88.7.2.32.3.67.3,1.03v.05s0,.08,0,.13c0,.04,0,.08,0,.12-.04.36-.16.71-.35,1.04-.19.33-.45.58-.77.75-.12.06-.24.1-.37.14-.13.04-.25.07-.38.1-.1.02-.21.04-.31.05-.1.01-.21.02-.3.02h-.11c-.42-.01-.83-.11-1.23-.28-.4-.17-.76-.4-1.08-.68l.84-1.34s.01.01.02.02Z" style="fill: #999; stroke-width: 0px;"/>
  </g>
  <g style="opacity: .46;">
    <rect x="13.26" y="7.29" width="51.7" height="51.7" rx="12.12" ry="12.12" style="fill: #2d2d2d; stroke-width: 0px;"/>
    <path d="m59.31,44.24c-1.22.46-2.59-.06-3.19-1.21-1.83-2.74-3.85-5.36-5.79-8.03l-.84-1.12c-2.31,3.1-4.63,6.07-6.74,9.16-.57,1.1-1.87,1.61-3.03,1.19l8.68-11.64-8.07-10.52c1.2-.43,2.54.04,3.2,1.12,1.88,2.74,3.95,5.36,6.02,8.13,2.08-2.75,4.13-5.38,6.05-8.1.57-1.08,1.87-1.57,3.01-1.12l-3.13,4.15c-1.4,1.85-2.78,3.72-4.24,5.52-.46.41-.5,1.12-.09,1.59.03.03.06.06.09.09,2.68,3.56,5.34,7.13,8.08,10.79m-40.39-11.8c.24-1.12.38-2.35.71-3.49,1.94-6.91,9.86-9.78,15.31-5.5,3.19,2.5,3.99,6.05,3.83,10.05h-17.97c-.29,7.14,4.86,11.45,11.45,9.25,2.17-.78,3.81-2.6,4.35-4.84.35-1.12.91-1.31,1.98-.99-.36,2.77-1.96,5.22-4.36,6.66-4.01,2.19-8.97,1.56-12.3-1.57-1.6-1.8-2.57-4.08-2.76-6.49,0-.38-.15-.76-.22-1.12,0-.65-.01-1.3-.01-1.95m1.9-.48h16.25c-.1-5.18-3.37-8.85-7.73-8.88-4.85-.07-8.32,3.53-8.53,8.86v.02Z" style="fill: #fff; stroke-width: 0px;"/>
  </g>
  <g>
    <rect x="17.73" y="84.52" width="44.44" height="17.56" rx="6.39" ry="6.39" style="fill: #0d0f10; opacity: .46; stroke: #a4a4a4; stroke-miterlimit: 10; stroke-width: .45px;"/>
    <circle cx="32.84" cy="93.82" r="1.79" style="fill: #adadad; opacity: .46; stroke-width: 0px;"/>
    <circle cx="40.23" cy="93.82" r="1.79" style="fill: #adadad; opacity: .46; stroke-width: 0px;"/>
    <circle cx="48.19" cy="93.82" r="1.79" style="fill: #adadad; opacity: .46; stroke-width: 0px;"/>
  </g>
</svg>