<?xml version="1.0" encoding="UTF-8"?>
<svg id="Layer_1" data-name="Layer 1" xmlns="http://www.w3.org/2000/svg" viewBox="0 0 78.22 109.26">
  <g style="opacity: .46;">
    <path d="m18.72,69.09h1.76l2.51,3.42c.06.1.12.2.18.31.06.11.12.22.17.33.04.09.08.18.13.27.04.09.08.18.13.26,0-.08-.02-.15-.03-.22-.01-.07-.02-.14-.03-.22-.01-.14-.02-.28-.03-.43,0-.15-.01-.3-.01-.45v-3.27h1.75v6.66h-1.75l-2.53-3.44c-.07-.08-.14-.18-.2-.3-.06-.12-.12-.24-.18-.36-.04-.09-.08-.18-.12-.27-.04-.09-.07-.17-.11-.25.04.22.06.44.08.66s.03.45.03.67v3.28h-1.76v-6.66Z" style="fill: #999; stroke-width: 0px;"/>
    <path d="m27.99,69.42c.57-.31,1.17-.47,1.79-.47.08,0,.17,0,.26.01.09,0,.17.01.26.02.26.04.51.1.77.19.25.09.5.21.73.36.49.32.88.75,1.15,1.28.27.53.41,1.09.41,1.67,0,.07,0,.14,0,.21,0,.07-.01.14-.03.21-.01.15-.04.29-.08.43-.04.14-.09.28-.14.42-.29.68-.75,1.2-1.37,1.57s-1.27.56-1.96.56c-.05,0-.1,0-.14,0s-.09,0-.14,0c-.24-.02-.47-.06-.71-.13-.23-.06-.46-.15-.67-.26-.59-.31-1.05-.74-1.38-1.31-.33-.57-.5-1.16-.5-1.77,0-.09,0-.18.01-.27,0-.09.02-.19.04-.28.03-.18.08-.36.15-.55.06-.18.14-.36.23-.53.32-.59.77-1.05,1.34-1.36Zm3.48,3.53c.02-.08.03-.15.04-.23,0-.05.01-.1.02-.15,0-.05,0-.09,0-.14s0-.08,0-.13c0-.04,0-.08,0-.13-.04-.3-.13-.59-.27-.87s-.35-.49-.61-.65c-.07-.03-.14-.07-.21-.09-.07-.03-.14-.05-.21-.07-.07-.01-.14-.03-.21-.04-.07-.01-.14-.02-.21-.02-.36,0-.68.11-.98.33-.3.22-.51.52-.63.89,0,.01-.01.03-.02.04,0,.01,0,.03,0,.04-.02.06-.04.13-.05.19-.01.07-.03.13-.04.2,0,.05-.01.1-.02.14s0,.09,0,.14v.08s0,.05.01.08c.02.37.13.72.34,1.05.21.33.49.55.85.65.04.01.08.03.13.04.04.01.09.02.14.03.04,0,.08.01.13.02.04,0,.08,0,.13,0,.37,0,.7-.11,1-.33.3-.22.51-.51.64-.88.02-.07.04-.14.06-.22Z" style="fill: #999; stroke-width: 0px;"/>
    <path d="m38.2,75.58c-.38.08-.77.14-1.16.16-.11,0-.22.01-.33.01h-2.15v-6.66h2.26c.11,0,.21,0,.32.01.38.02.75.07,1.11.16.37.08.7.24,1.01.46.39.27.69.63.91,1.08.22.45.34.91.37,1.38,0,.04.01.08.01.13v.26c-.02.5-.14.97-.36,1.43s-.53.84-.93,1.13c-.33.22-.68.38-1.07.46Zm-1.78-1.32s.05,0,.07,0c.03,0,.05,0,.07,0,.02,0,.04,0,.06,0,.07,0,.14,0,.22,0,.08,0,.15,0,.22-.02.18-.01.36-.05.53-.09.17-.05.33-.12.47-.22.22-.16.39-.38.5-.65.11-.28.16-.56.16-.86v-.08s0-.06-.01-.08c-.01-.26-.08-.52-.19-.77-.11-.25-.27-.44-.46-.59-.15-.12-.31-.2-.49-.24-.18-.04-.36-.07-.55-.07h-.68v3.67s.04,0,.07,0Z" style="fill: #999; stroke-width: 0px;"/>
    <path d="m41.86,69.09h4.09v1.45h-2.3v1.16h2.16v1.42h-2.16v1.13h2.3v1.5h-4.09v-6.66Z" style="fill: #999; stroke-width: 0px;"/>
    <path d="m48,76s-.01-.01-.02-.01h-.02c-.24,0-.45-.1-.65-.28-.2-.18-.29-.39-.29-.64s.1-.47.29-.67c.19-.2.41-.31.65-.31h.06c.23.01.44.12.63.32.19.2.29.42.29.66s-.1.45-.29.63c-.19.18-.4.28-.63.29h-.03Z" style="fill: #999; stroke-width: 0px;"/>
    <path d="m53.77,69.09v4.63c0,.26-.04.51-.09.76-.05.25-.15.47-.3.67-.18.24-.4.43-.66.54s-.52.18-.79.2h-.18s-.06,0-.09-.01c-.36-.03-.7-.13-1.02-.31-.32-.18-.59-.42-.8-.72l1.11-1s.01.06.02.09c0,.03.02.06.03.1.04.11.1.21.17.3s.17.14.28.14c.01,0,.03,0,.05,0,.02,0,.04,0,.06-.02h.02s.03-.01.05-.02c.02,0,.03,0,.04,0,.11-.05.19-.16.23-.33.05-.17.07-.36.08-.55,0-.04.01-.08.01-.13v-4.33h1.79Z" style="fill: #999; stroke-width: 0px;"/>
    <path d="m55.74,73.61s0,0,.02.02c.19.21.4.4.64.58.24.18.51.27.82.29,0,0,.02,0,.03,0,.01,0,.02,0,.03,0s.02,0,.03,0c.01,0,.02,0,.03,0,.03,0,.06,0,.09,0,.03,0,.06,0,.09-.02.11-.02.22-.06.32-.13.1-.06.18-.14.23-.23,0-.01.01-.03.02-.04,0-.01.01-.03.02-.04.01-.05.02-.09.03-.14,0-.04.01-.08.01-.11,0-.19-.08-.35-.25-.48-.16-.13-.34-.23-.53-.3-.08-.03-.15-.05-.22-.07s-.14-.03-.2-.05c0,0-.01,0-.02,0,0,0-.01,0-.02,0-.34-.08-.66-.22-.96-.4-.3-.18-.51-.45-.62-.8-.02-.07-.04-.14-.06-.22-.02-.08-.03-.16-.04-.24,0-.03-.01-.05-.01-.08v-.08c0-.06,0-.11,0-.17s.01-.11.03-.17c.02-.14.06-.28.1-.42.05-.14.11-.27.19-.38.22-.37.51-.63.86-.79.35-.16.72-.24,1.1-.24.09,0,.18,0,.28.02.09.01.19.02.29.04.25.04.5.11.75.21.25.1.48.21.69.35l-.58,1.29c-.19-.14-.39-.26-.6-.37-.21-.1-.44-.16-.68-.16h-.08c-.16.02-.31.09-.45.21-.14.12-.21.25-.21.39,0,.02,0,.04,0,.06,0,.02.01.04.03.06.01.05.04.09.07.14.04.04.07.08.12.11.08.06.19.12.33.17.15.05.3.1.46.15.13.04.26.07.39.1.13.03.23.06.31.09.39.14.68.37.88.7.2.32.3.67.3,1.03v.05s0,.08,0,.13c0,.04,0,.08,0,.12-.04.36-.16.71-.35,1.04-.19.33-.45.58-.77.75-.12.06-.24.1-.37.14s-.25.07-.38.1c-.1.02-.21.04-.31.05-.1.01-.21.02-.3.02h-.11c-.42-.01-.83-.11-1.23-.28-.4-.17-.76-.4-1.08-.68l.84-1.34s.01.01.02.02Z" style="fill: #999; stroke-width: 0px;"/>
  </g>
  <g style="opacity: .46;">
    <rect x="13.26" y="7.29" width="51.7" height="51.7" rx="12.12" ry="12.12" style="fill: #2d2d2d; stroke-width: 0px;"/>
    <path d="m37.47,13.58c.99-.57,2.29-.57,3.28,0,4.99,2.82,9.99,5.64,14.98,8.46.94.53,1.57,1.57,1.56,2.66v16.97c0,1.13-.68,2.2-1.67,2.71-4.98,2.81-9.95,5.61-14.93,8.42-1.01.58-2.33.53-3.32-.09-1.49-.86-2.99-1.73-4.48-2.59-.3-.18-.65-.33-.86-.62.19-.26.53-.29.81-.4.62-.2,1.19-.52,1.77-.82.14-.1.32-.06.46.03,1.28.73,2.54,1.48,3.82,2.21.27.16.55-.05.78-.18,4.88-2.76,9.77-5.51,14.66-8.27.18-.09.28-.28.27-.48,0-5.6,0-11.2,0-16.8.02-.22-.11-.43-.31-.52-4.96-2.79-9.92-5.59-14.87-8.38-.18-.12-.41-.12-.58,0-4.96,2.79-9.91,5.59-14.87,8.39-.2.09-.34.3-.31.52,0,5.6,0,11.2,0,16.8-.02.2.09.39.27.47,1.32.75,2.65,1.5,3.97,2.24.75.4,1.66.64,2.48.33.73-.26,1.23-1,1.22-1.77,0-5.57,0-11.13,0-16.7-.02-.25.22-.45.46-.43.64,0,1.27,0,1.91,0,.27,0,.45.26.42.51,0,5.6,0,11.2,0,16.81,0,1.49-.61,3.12-1.99,3.85-1.7.88-3.8.69-5.48-.15-1.45-.73-2.84-1.58-4.27-2.36-.99-.51-1.68-1.59-1.67-2.71v-16.97c-.01-1.1.64-2.17,1.61-2.69,4.98-2.81,9.95-5.62,14.92-8.43" style="fill: #81cd39; stroke-width: 0px;"/>
    <path d="m41.81,25.33c2.17-.14,4.49-.08,6.45.99,1.51.82,2.35,2.54,2.38,4.22-.04.23-.28.35-.5.34-.63,0-1.26,0-1.89,0-.27.01-.42-.24-.46-.47-.18-.8-.62-1.6-1.38-1.99-1.16-.58-2.51-.55-3.77-.54-.92.05-1.92.13-2.7.67-.6.41-.78,1.24-.57,1.91.2.48.76.64,1.21.78,2.62.68,5.39.62,7.95,1.52,1.06.37,2.1,1.08,2.46,2.19.48,1.49.27,3.27-.79,4.47-.86.98-2.11,1.52-3.36,1.81-1.66.37-3.39.38-5.07.22-1.59-.18-3.24-.6-4.46-1.68-1.05-.91-1.56-2.33-1.51-3.69.01-.23.24-.39.46-.37.63,0,1.27,0,1.9,0,.25-.02.44.2.45.44.12.77.4,1.57,1.07,2.02,1.29.83,2.91.77,4.38.8,1.22-.05,2.59-.07,3.59-.88.53-.46.68-1.23.54-1.9-.15-.56-.74-.82-1.24-.99-2.58-.82-5.38-.52-7.94-1.44-1.04-.37-2.04-1.06-2.44-2.13-.56-1.51-.3-3.38.87-4.53,1.14-1.15,2.79-1.59,4.36-1.75" style="fill: #81cd39; stroke-width: 0px;"/>
  </g>
  <rect x="17.75" y="83.82" width="44.44" height="17.56" rx="6.39" ry="6.39" style="fill: #0d0f10; opacity: .46; stroke: #a4a4a4; stroke-miterlimit: 10; stroke-width: .45px;"/>
  <circle cx="32.86" cy="93.11" r="1.79" style="fill: #adadad; opacity: .46; stroke-width: 0px;"/>
  <circle cx="40.25" cy="93.11" r="1.79" style="fill: #adadad; opacity: .46; stroke-width: 0px;"/>
  <circle cx="48.22" cy="93.11" r="1.79" style="fill: #adadad; opacity: .46; stroke-width: 0px;"/>
</svg>