<?xml version="1.0" encoding="UTF-8"?>
<svg id="Layer_1" data-name="Layer 1" xmlns="http://www.w3.org/2000/svg" xmlns:xlink="http://www.w3.org/1999/xlink" viewBox="0 0 162.07 109.26">
  <defs>
    <linearGradient id="linear-gradient" x1="10.12" y1="52.99" x2="153.34" y2="52.99" gradientUnits="userSpaceOnUse">
      <stop offset="0" stop-color="#663693"/>
      <stop offset="1" stop-color="#e15026"/>
    </linearGradient>
  </defs>
  <path d="m10.12,10.13h19.22v5h-13.15v9.17h12.23v4.95h-12.23v14.12h-6.08V10.13Zm25.1.46c2.31-.42,5.68-.71,9.21-.71,4.76,0,8.01.8,10.25,2.68,1.83,1.52,2.86,3.82,2.86,6.68,0,4.28-2.91,7.2-6.05,8.3v.14c2.41.91,3.81,3.2,4.64,6.43,1.06,4.16,1.96,7.97,2.63,9.27h-6.24c-.52-.96-1.31-3.71-2.24-7.84-.95-4.33-2.53-5.74-5.98-5.82h-3.06v13.66h-6.03V10.59Zm6.03,14.67h3.59c4.12,0,6.65-2.17,6.65-5.47,0-3.62-2.55-5.32-6.47-5.33-1.93,0-3.15.15-3.77.31v10.5Zm51.5,1.16c0,11.13-6.75,17.5-15.91,17.5s-15.33-7.17-15.33-16.91,6.45-17.42,15.83-17.42,15.41,7.33,15.41,16.83Zm-24.83.47c0,6.78,3.43,12.17,9.23,12.17s9.18-5.46,9.18-12.41c0-6.27-3.11-12.2-9.17-12.2s-9.25,5.61-9.25,12.44Zm30.04,16.49V10.13h6.94l8.59,14.27c2.19,3.67,4.12,7.53,5.66,11.14l.12-.03c-.43-4.41-.54-8.7-.54-13.78v-11.6h5.61v33.24h-6.29l-8.67-14.62c-2.12-3.65-4.33-7.7-5.96-11.47l-.16.03c.24,4.32.32,8.71.32,14.17v11.89h-5.61Zm39.72-28.14h-9.49v-5.1h25.15v5.1h-9.58v28.14h-6.08V15.24ZM28.72,81.32h-12.53v9.75h14.01v5H10.12v-33.24h19.35v5h-13.27v8.55h12.53v4.95Zm6.8,14.75v-33.24h6.94l8.59,14.27c2.19,3.67,4.12,7.53,5.66,11.14l.12-.03c-.43-4.41-.54-8.7-.54-13.78v-11.6h5.61v33.24h-6.29l-8.67-14.62c-2.12-3.65-4.33-7.7-5.96-11.47l-.16.03c.24,4.32.32,8.71.32,14.17v11.89h-5.61Zm33.34-32.78c2.71-.44,6.09-.71,9.68-.71,6.24,0,10.49,1.3,13.55,3.84,3.24,2.63,5.21,6.59,5.21,12.23,0,5.96-2.03,10.36-5.17,13.22-3.34,3-8.59,4.52-15.05,4.52-3.53,0-6.21-.18-8.21-.44v-32.67Zm6.07,28.15c.85.15,2.14.16,3.38.16,7.88.04,12.58-4.33,12.58-12.75.03-7.33-4.19-11.56-11.82-11.56-1.9,0-3.26.17-4.14.35v23.79Z" style="fill: url(#linear-gradient); stroke-width: 0px;"/>
</svg>