<?xml version="1.0" encoding="UTF-8"?>
<svg id="Layer_1" data-name="Layer 1" xmlns="http://www.w3.org/2000/svg" xmlns:xlink="http://www.w3.org/1999/xlink" viewBox="0 0 78.22 109.26">
  <defs>
    <filter id="drop-shadow-2" filterUnits="userSpaceOnUse">
      <feOffset dx="0" dy="0"/>
      <feGaussianBlur result="blur" stdDeviation="19.3"/>
      <feFlood flood-color="#231f20" flood-opacity=".7"/>
      <feComposite in2="blur" operator="in"/>
      <feComposite in="SourceGraphic"/>
    </filter>
  </defs>
  <rect x="-70.43" y="140.67" width="541.33" height="162.67" rx="18.58" ry="18.58" style="fill: #191d23; filter: url(#drop-shadow-2); stroke-width: 0px;"/>
  <rect x="17.1" y="85.08" width="44.02" height="17.56" rx="6.39" ry="6.39" style="fill: #0d0f10; opacity: .46; stroke: #a4a4a4; stroke-miterlimit: 10; stroke-width: .45px;"/>
  <g style="opacity: .46;">
    <rect x="14.3" y="6.54" width="52.57" height="52.57" rx="12.32" ry="12.32" style="fill: #f4f2ed; stroke-width: 0px;"/>
    <path d="m39.24,12.3c-.09,0-.37.04-.62.06-5.83.53-11.3,3.67-14.76,8.51-1.93,2.69-3.16,5.74-3.62,8.97-.16,1.13-.18,1.46-.18,2.99s.02,1.86.18,2.99c1.12,7.71,6.6,14.19,14.05,16.59,1.33.43,2.74.72,4.34.9.62.07,3.31.07,3.93,0,2.76-.31,5.09-.99,7.4-2.16.35-.18.42-.23.37-.27-.03-.02-1.54-2.04-3.34-4.48l-3.28-4.44-4.12-6.09c-2.26-3.35-4.13-6.09-4.14-6.09-.02,0-.03,2.7-.04,6.01-.01,5.78-.02,6.02-.09,6.15-.1.2-.18.28-.35.37-.13.06-.24.08-.85.08h-.69l-.18-.12c-.11-.07-.21-.17-.27-.29l-.08-.18v-8.05s.02-8.05.02-8.05l.12-.16c.06-.08.2-.19.3-.24.16-.08.23-.09.92-.09.82,0,.96.03,1.17.26.06.06,2.29,3.42,4.95,7.46,2.7,4.09,5.4,8.18,8.1,12.27l3.25,4.93.16-.11c1.46-.95,3-2.3,4.22-3.7,2.6-2.98,4.27-6.62,4.83-10.5.16-1.13.18-1.46.18-2.99s-.02-1.86-.18-2.99c-1.12-7.71-6.6-14.19-14.05-16.59-1.31-.43-2.71-.72-4.28-.9-.39-.04-3.04-.08-3.37-.05m8.41,12.42c.19.1.35.28.41.47.03.1.04,2.34.03,7.37v7.22s-1.28-1.95-1.28-1.95l-1.28-1.95v-5.25c0-3.39.02-5.3.04-5.39.06-.22.2-.4.4-.51.16-.08.22-.09.86-.09.59,0,.7,0,.83.08" style="stroke-width: 0px;"/>
  </g>
  <path d="m25.51,73c0,.15,0,.3.01.45,0,.15.02.29.03.43,0,.08.02.15.03.22.01.07.02.14.03.22-.04-.08-.08-.17-.13-.26-.04-.09-.08-.18-.13-.27-.06-.11-.11-.22-.17-.33-.06-.11-.12-.21-.18-.31l-2.51-3.42h-1.76v6.66h1.76v-3.28c0-.22-.01-.45-.03-.67-.02-.22-.05-.44-.08-.66.04.08.07.16.11.25.04.09.08.18.12.27.06.13.11.25.18.36.06.11.13.21.2.3l2.53,3.44h1.75v-6.66h-1.75v3.27Z" style="fill: #999; opacity: .46; stroke-width: 0px;"/>
  <polygon points="28.62 76.39 32.71 76.39 32.71 74.9 30.41 74.9 30.41 73.77 32.57 73.77 32.57 72.35 30.41 72.35 30.41 71.19 32.71 71.19 32.71 69.73 28.62 69.73 28.62 76.39" style="fill: #999; opacity: .46; stroke-width: 0px;"/>
  <path d="m40.19,69.73h-2.15l-.79,1.55c-.04.07-.08.14-.11.21s-.06.14-.09.21c0,.01-.01.03-.02.05,0,.02-.01.04-.02.06-.02-.09-.05-.18-.08-.27-.04-.09-.08-.18-.14-.27l-.79-1.55h-2.15l2.23,3.17-2.46,3.49h2.05l1.13-1.99c.04-.06.07-.11.09-.17s.05-.12.07-.18c.01-.03.02-.06.03-.09s.01-.06.02-.09c0,.02.01.04.02.06,0,.02.01.03.02.05,0,.01.01.03.02.04,0,.01,0,.02.02.04.02.06.05.12.07.18s.06.12.09.17l1.14,1.99h2.05l-2.46-3.46,2.22-3.2Z" style="fill: #999; opacity: .46; stroke-width: 0px;"/>
  <polygon points="41.54 71.31 43.03 71.31 43.03 76.39 44.85 76.39 44.85 71.31 46.33 71.31 46.33 69.73 41.54 69.73 41.54 71.31" style="fill: #999; opacity: .46; stroke-width: 0px;"/>
  <path d="m47.45,74.73h-.06c-.24,0-.45.11-.65.31-.2.2-.29.43-.29.67s.1.46.29.64c.19.18.41.28.65.28h.02s0,0,.02.01h0s.01-.01.02-.01h.02c.23,0,.44-.1.63-.29.19-.18.29-.4.29-.63s-.1-.47-.29-.66c-.19-.2-.4-.3-.63-.32Z" style="fill: #999; opacity: .46; stroke-width: 0px;"/>
  <path d="m51.4,73.94v.13s0,.08-.01.13c0,.2-.03.38-.08.55-.05.17-.12.29-.23.33,0,0-.02,0-.04,0-.02,0-.03,0-.05.02h-.02s-.04.01-.06.02c-.02,0-.03,0-.05,0-.11,0-.2-.04-.28-.14s-.13-.19-.17-.3c-.01-.03-.02-.07-.03-.1,0-.03-.01-.06-.02-.09l-1.11,1c.21.3.48.54.8.72.32.18.66.29,1.02.31.03,0,.06.01.09.01h.18c.27-.01.54-.08.79-.2s.48-.3.66-.54c.15-.2.25-.43.3-.67.05-.25.08-.5.09-.76v-4.63h-1.79v4.2Z" style="fill: #999; opacity: .46; stroke-width: 0px;"/>
  <path d="m58.92,73.13c-.2-.32-.49-.56-.88-.7-.08-.03-.19-.06-.31-.09-.13-.03-.25-.06-.39-.1-.16-.05-.31-.1-.46-.15-.15-.05-.26-.11-.33-.17-.04-.03-.08-.07-.12-.11-.03-.04-.06-.09-.07-.14-.01-.02-.02-.04-.03-.06,0-.02,0-.04,0-.06,0-.14.07-.27.21-.39.14-.12.29-.19.45-.21h.08c.24,0,.47.05.68.16.21.1.41.23.6.37l.58-1.29c-.21-.13-.44-.25-.69-.35-.25-.1-.5-.17-.75-.21-.1-.01-.19-.03-.29-.04-.09-.01-.19-.02-.28-.02-.38,0-.75.08-1.1.24-.35.16-.64.43-.86.79-.08.11-.14.24-.19.38-.05.14-.08.28-.1.42-.01.06-.02.11-.03.17s0,.11,0,.17v.08s0,.05.01.08c0,.08.02.16.04.24.02.08.04.15.06.22.11.35.32.62.62.8.3.19.62.32.96.4,0,0,.01,0,.02,0,0,0,.01,0,.02,0,.06.01.13.03.2.05s.14.04.22.07c.19.07.36.17.53.3.16.13.25.29.25.48,0,.03,0,.07-.01.11,0,.04-.02.09-.03.14,0,.01-.01.03-.02.04,0,.01-.01.03-.02.04-.06.09-.13.17-.23.23-.1.06-.21.1-.32.13-.03,0-.06.01-.09.02-.03,0-.06,0-.09,0,0,0-.02,0-.03,0-.01,0-.02,0-.03,0s-.02,0-.03,0c-.01,0-.02,0-.03,0-.31-.01-.58-.11-.82-.29-.24-.18-.45-.37-.64-.58,0,0-.01-.01-.02-.02,0,0,0,0-.02-.02l-.84,1.34c.31.29.67.51,1.08.68.4.17.82.26,1.23.28h.11c.1,0,.2,0,.3-.02.1-.01.21-.03.31-.05.13-.03.25-.06.38-.1.13-.04.25-.09.37-.14.32-.17.58-.43.77-.75.19-.33.31-.67.35-1.04,0-.04,0-.07,0-.12,0-.04,0-.08,0-.13v-.05c0-.36-.11-.71-.3-1.03Z" style="fill: #999; opacity: .46; stroke-width: 0px;"/>
  <circle cx="31.91" cy="94.15" r="1.79" style="fill: #adadad; opacity: .46; stroke-width: 0px;"/>
  <circle cx="39.3" cy="94.15" r="1.79" style="fill: #adadad; opacity: .46; stroke-width: 0px;"/>
  <circle cx="47.27" cy="94.15" r="1.79" style="fill: #adadad; opacity: .46; stroke-width: 0px;"/>
</svg>