<?xml version="1.0" encoding="UTF-8"?>
<svg id="Layer_1" data-name="Layer 1" xmlns="http://www.w3.org/2000/svg" xmlns:xlink="http://www.w3.org/1999/xlink" viewBox="0 0 78.22 109.26">
  <defs>
    <filter id="drop-shadow-2" filterUnits="userSpaceOnUse">
      <feOffset dx="0" dy="0"/>
      <feGaussianBlur result="blur" stdDeviation="19.3"/>
      <feFlood flood-color="#231f20" flood-opacity=".7"/>
      <feComposite in2="blur" operator="in"/>
      <feComposite in="SourceGraphic"/>
    </filter>
  </defs>
  <rect x="29.57" y="140.67" width="541.33" height="162.67" rx="18.58" ry="18.58" style="fill: #191d23; filter: url(#drop-shadow-2); stroke-width: 0px;"/>
  <rect x="16.89" y="84.86" width="44.44" height="17.56" rx="6.39" ry="6.39" style="fill: #0d0f10; opacity: .46; stroke: #a4a4a4; stroke-miterlimit: 10; stroke-width: .45px;"/>
  <g style="opacity: .46;">
    <rect x="13.06" y="6.54" width="52.57" height="52.57" rx="12.32" ry="12.32" style="fill: #242938; stroke-width: 0px;"/>
    <path d="m50.43,16.81h7.39l-18.48,31.88-18.48-31.88h14.14l4.34,7.39,4.25-7.39h6.84Z" style="fill: #40b682; stroke-width: 0px;"/>
    <path d="m20.86,16.81l18.48,31.88,18.48-31.88h-7.39l-11.09,19.13-11.18-19.13h-7.3Z" style="fill: #40b682; stroke-width: 0px;"/>
    <path d="m28.16,16.81l11.18,19.22,11.09-19.22h-6.84l-4.25,7.39-4.34-7.39h-6.84Z" style="fill: #242424; stroke-width: 0px;"/>
  </g>
  <path d="m26.63,73.47c-.03.09-.06.18-.09.28s-.05.2-.07.3c0,.05-.02.1-.03.15-.01.05-.02.1-.04.15,0-.05-.02-.1-.03-.15s-.02-.1-.03-.15c-.03-.1-.06-.21-.08-.3-.03-.1-.06-.19-.09-.28l-1.32-3.73h-1.91l2.78,6.66h1.37l2.79-6.66h-1.92l-1.33,3.73Z" style="fill: #999; opacity: .46; stroke-width: 0px;"/>
  <path d="m34.2,73.28v.23c0,.19-.02.37-.04.54-.02.17-.05.33-.11.46-.08.17-.21.31-.39.41-.18.1-.37.15-.58.16h-.04c-.22,0-.42-.05-.61-.15-.19-.1-.32-.24-.4-.41-.06-.13-.1-.29-.12-.46s-.04-.36-.05-.54v-.38s0-.09,0-.14c0-.04,0-.08,0-.13,0-.07,0-.13,0-.19s0-.11,0-.16v-2.78h-1.82v3.29s-.01.07-.01.1v.59c0,.07,0,.13.01.19.01.33.06.66.14.98.08.32.22.6.43.85.23.26.5.44.82.55.32.11.65.18.99.22.1,0,.2.01.29.02s.19,0,.29,0c.09,0,.18,0,.28,0s.19,0,.29-.02c.34-.04.67-.11.99-.21.32-.11.59-.29.82-.56.21-.24.35-.53.43-.85.08-.32.12-.65.14-.98,0-.06.01-.13.01-.19v-3.99h-1.8v3.54Z" style="fill: #999; opacity: .46; stroke-width: 0px;"/>
  <polygon points="37.47 76.39 41.56 76.39 41.56 74.9 39.26 74.9 39.26 73.77 41.43 73.77 41.43 72.35 39.26 72.35 39.26 71.19 41.56 71.19 41.56 69.73 37.47 69.73 37.47 76.39" style="fill: #999; opacity: .46; stroke-width: 0px;"/>
  <path d="m43.64,74.73h-.06c-.24,0-.45.11-.65.31-.2.2-.29.43-.29.67s.1.46.29.64c.19.18.41.28.65.28h.02s0,0,.02.01h0s.01-.01.02-.01h.02c.23,0,.44-.1.63-.29.19-.18.29-.4.29-.63s-.1-.47-.29-.66c-.19-.2-.4-.3-.63-.32Z" style="fill: #999; opacity: .46; stroke-width: 0px;"/>
  <path d="m47.6,73.94v.13s0,.08-.01.13c0,.2-.03.38-.08.55-.05.17-.12.29-.23.33,0,0-.02,0-.04,0-.02,0-.03,0-.05.02h-.02s-.04.01-.06.02c-.02,0-.03,0-.05,0-.11,0-.2-.04-.28-.14s-.13-.19-.17-.3c-.01-.03-.02-.07-.03-.1,0-.03-.01-.06-.02-.09l-1.11,1c.21.3.48.54.8.72.32.18.66.29,1.02.31.03,0,.06.01.09.01h.18c.27-.01.54-.08.79-.2s.48-.3.66-.54c.15-.2.25-.43.3-.67.05-.25.08-.5.09-.76v-4.63h-1.79v4.2Z" style="fill: #999; opacity: .46; stroke-width: 0px;"/>
  <path d="m54.24,72.43c-.08-.03-.19-.06-.31-.09-.13-.03-.25-.06-.39-.1-.16-.05-.31-.1-.46-.15-.15-.05-.26-.11-.33-.17-.04-.03-.08-.07-.12-.11-.03-.04-.06-.09-.07-.14-.01-.02-.02-.04-.03-.06,0-.02,0-.04,0-.06,0-.14.07-.27.21-.39.14-.12.29-.19.45-.21h.08c.24,0,.47.05.68.16.21.1.41.23.6.37l.58-1.29c-.21-.13-.44-.25-.69-.35-.25-.1-.5-.17-.75-.21-.1-.01-.19-.03-.29-.04-.09-.01-.19-.02-.28-.02-.38,0-.75.08-1.1.24-.35.16-.64.43-.86.79-.08.11-.14.24-.19.38-.05.14-.08.28-.1.42-.01.06-.02.11-.03.17s0,.11,0,.17v.08s0,.05.01.08c0,.08.02.16.04.24.02.08.04.15.06.22.11.35.32.62.62.8.3.19.62.32.96.4,0,0,.01,0,.02,0,0,0,.01,0,.02,0,.06.01.13.03.2.05s.14.04.22.07c.19.07.36.17.53.3.16.13.25.29.25.48,0,.03,0,.07-.01.11,0,.04-.02.09-.03.14,0,.01-.01.03-.02.04,0,.01-.01.03-.02.04-.06.09-.13.17-.23.23-.1.06-.21.1-.32.13-.03,0-.06.01-.09.02-.03,0-.06,0-.09,0,0,0-.02,0-.03,0-.01,0-.02,0-.03,0s-.02,0-.03,0c-.01,0-.02,0-.03,0-.31-.01-.58-.11-.82-.29-.24-.18-.45-.37-.64-.58,0,0-.01-.01-.02-.02,0,0,0,0-.02-.02l-.84,1.34c.31.29.67.51,1.08.68.4.17.82.26,1.23.28h.11c.1,0,.2,0,.3-.02.1-.01.21-.03.31-.05.13-.03.25-.06.38-.1s.25-.09.37-.14c.32-.17.58-.43.77-.75.19-.33.31-.67.35-1.04,0-.04,0-.07,0-.12,0-.04,0-.08,0-.13v-.05c0-.36-.11-.71-.3-1.03-.2-.32-.49-.56-.88-.7Z" style="fill: #999; opacity: .46; stroke-width: 0px;"/>
  <circle cx="32" cy="94.15" r="1.79" style="fill: #adadad; opacity: .46; stroke-width: 0px;"/>
  <circle cx="39.39" cy="94.15" r="1.79" style="fill: #adadad; opacity: .46; stroke-width: 0px;"/>
  <circle cx="47.36" cy="94.15" r="1.79" style="fill: #adadad; opacity: .46; stroke-width: 0px;"/>
</svg>